<?xml version="1.0" encoding="UTF-8" standalone="no"?>
<!-- Created with Inkscape (http://www.inkscape.org/) -->

<svg
   width="656.8927mm"
   height="571.83527mm"
   viewBox="0 0 656.8927 571.83526"
   version="1.1"
   id="svg1"
   xmlns:xlink="http://www.w3.org/1999/xlink"
   xmlns="http://www.w3.org/2000/svg"
   xmlns:svg="http://www.w3.org/2000/svg">
  <defs
     id="defs1">
    <linearGradient
       id="linearGradient3">
      <stop
         style="stop-color:#fbeee0;stop-opacity:1;"
         offset="0.24941176"
         id="stop3" />
      <stop
         style="stop-color:#f9e4cd;stop-opacity:1;"
         offset="1"
         id="stop4" />
    </linearGradient>
    <radialGradient
       xlink:href="#linearGradient3"
       id="radialGradient4"
       cx="401.33517"
       cy="393.85428"
       fx="401.33517"
       fy="393.85428"
       r="306.28455"
       gradientTransform="matrix(1.0723569,0,0,0.93350328,-94.602663,-78.782071)"
       gradientUnits="userSpaceOnUse" />
  </defs>
  <g
     id="layer1"
     transform="translate(-7.3255348,-2.9645684)">
    <path
       style="display:inline;fill:url(#radialGradient4);fill-opacity:1;stroke:none;stroke-width:0.662106;stroke-linecap:round;stroke-dasharray:none"
       d="m 7.5001335,15.841757 c -0.8703325,8.772151 1.7961269,5.984809 1.7961269,14.645571 0,3.044998 -0.7426992,6.781609 0,9.763707 0.7622026,3.060409 2.6824356,5.823802 3.3159206,8.876107 0.478971,2.307794 1.182866,7.700375 2.210613,9.763706 0.792428,1.590881 2.779473,2.714876 3.315931,4.438062 0.957111,3.074403 -1.39963,0.533079 1.105298,3.550434 1.002409,1.20746 2.891815,2.188135 3.315933,3.550445 0.357427,1.148143 -1.042096,2.713594 0,3.550448 0.260519,0.209206 0.940529,-0.264638 1.105298,0 0.584263,0.938358 0.48638,2.556371 1.105312,3.550437 0.261406,0.419855 2.210619,2.250436 2.210619,2.662828 0,0.591739 -1.551539,-0.264621 -2.210619,0 -0.466036,0.187133 -0.736871,0.591739 -1.105312,0.887607 -1.653005,1.327437 -3.735576,1.943717 -5.526529,2.662848 -0.932083,0.37424 -1.27854,1.400961 -2.210623,1.775225 -0.329533,0.132316 -0.844781,-0.209223 -1.105308,0 -0.260518,0.209191 0.260527,0.67839 0,0.887596 -0.260518,0.209215 -0.844782,-0.209206 -1.105301,0 -0.260528,0.209215 0.260519,0.678399 0,0.887608 -0.260528,0.209209 -0.844792,-0.209209 -1.105312,0 -0.260521,0.209209 0.26052,0.678402 0,0.887619 -0.260521,0.209209 -0.844783,-0.209217 -1.105308,0 -0.292578,0.234947 0,2.297327 0,2.662823 0,1.74758 -0.939016,4.705142 0,6.213266 0.233022,0.374255 0.940541,0.490664 1.105308,0.887628 0.233025,0.561369 -0.329539,1.24595 0,1.775212 0.16477,0.26464 0.940544,-0.264639 1.105312,0 0.329535,0.529276 -0.329545,1.245966 0,1.775226 0.164768,0.26463 0.844783,-0.2092 1.105301,0 0.06928,0.0556 3.053611,4.01675 3.315931,4.43806 1.087326,1.74633 -1.48395,2.38333 -2.210623,3.55043 -0.957806,1.53833 0,8.78004 0,10.65134 0,4.02494 1.254927,18.27936 0,21.30263 -0.164766,0.39696 -0.94053,0.49066 -1.105308,0.88761 -1.401088,3.37541 0,11.45268 0,15.08938 0,8.92958 1.545566,19.00087 -1.105301,27.51591 -0.797521,2.56179 0,6.23986 0,8.87612 0,0.59175 -0.521045,1.35678 0,1.77523 0.260519,0.20921 0.736871,0 1.105301,0 0.736879,0.29585 1.628074,0.41978 2.21062,0.88758 0.336752,0.27044 4.601118,6.95645 4.421232,7.10091 -0.956297,0.76793 -5.415349,1.68595 -6.631852,2.66282 -0.36843,0.29587 -0.736871,2.36697 -1.105301,2.66282 -0.260528,0.20921 -0.844792,-0.20919 -1.105312,0 -0.260521,0.20921 0.16477,0.62299 0,0.88763 -1.4106,2.26554 -0.190804,2.23489 -1.105308,4.43805 -0.164768,0.39696 -0.872285,0.51337 -1.105305,0.88761 -1.1610486,1.86474 1.105305,8.34308 1.105305,10.65132 0,4.74981 -1.297275,15.36036 0,19.52743 0.0878,0.28198 2.039761,3.88924 2.21062,4.43806 0.997551,3.20434 -0.08376,9.56189 1.105301,12.42655 0.164778,0.39694 0.978944,0.48167 1.105308,0.88761 1.044628,3.35552 0,8.064 0,11.53894 v 29.29112 c 0,6.92351 0.349536,-1.68411 -1.105308,5.32568 -0.792249,3.81729 1.517931,8.76965 0,12.42655 -0.164769,0.39696 -0.872288,0.51336 -1.105301,0.88758 -1.071165,1.7204 0,11.71368 0,13.31418 0,3.74762 1.166618,21.20417 0,23.07787 -2.482177,3.98659 0.265291,8.91156 -1.105312,13.31417 -0.199812,0.64183 -0.943735,1.12646 -1.105308,1.7752 -0.637497,2.5597 -0.771244,16.16245 0,18.63983 0.126373,0.40593 0.872291,0.51335 1.105308,0.88761 0.494315,0.79391 -0.349527,1.82076 0,2.66284 -0.413132,1.93366 1.842183,0.29587 2.210613,0.8876 0.329544,0.52926 -0.233013,1.21384 0,1.77522 0.444997,1.07206 1.924954,0.19941 3.315931,3.55044 0.610684,1.47123 1.014651,10.79694 0,12.42655 -0.233023,0.37425 -0.872299,0.51336 -1.105311,0.88761 -0.329546,0.52928 0.521046,1.35679 0,1.77523 -0.260529,0.20921 -0.940543,-0.26465 -1.105312,0 -0.569613,0.91485 0.07893,1.6485 -1.105308,3.55044 -0.562034,0.90268 -0.430284,6.5588 -1.105301,7.10088 -0.619018,0.49708 -1.685425,0.50996 -2.21062,1.7752 -0.624724,1.50505 0,4.61733 0,6.21329 0,2.06342 -1.381502,6.10238 -1.105305,6.21326 0.659077,0.26465 1.511557,-0.18711 2.210613,0 2.282567,0.611 3.351031,1.49815 5.526544,2.66283 0.306555,0.16413 0.94053,-0.26462 1.105298,0 0.329548,0.52928 -0.521045,1.35681 0,1.77523 1.019834,0.81897 6.439097,0.15479 4.421231,1.77525 -1.747362,1.4032 -10.097644,2.01592 -12.158381,5.32563 -0.802073,1.28822 -0.636097,18.8826 0,20.41506 0.260525,0.62763 0.844787,1.14757 1.105308,1.77522 0.29445,0.70936 -0.623489,3.04976 0,3.55042 0.26052,0.20922 0.940544,-0.26463 1.105312,0 0.319809,0.51365 0.585486,19.89214 0,21.30267 -0.549377,1.32348 -1.817354,2.85902 -2.21062,4.43805 -0.31796,1.27669 -0.944262,18.01085 0,19.52741 0.797918,1.28154 1.412701,2.26894 2.21062,3.55046 1.063564,1.70816 0,9.23872 0,11.53893 0,1.98529 -1.109861,7.09357 0,8.8761 1.031844,1.65723 1.105301,2.40753 1.105301,4.43807 0,2.15053 -1.171657,6.9943 0,8.8761 1.115947,1.79229 4.019483,3.38913 6.631852,4.43804 0.329534,0.13231 0.84478,-0.20921 1.10531,0 0.260519,0.20921 -0.26053,0.6784 0,0.88763 0.05995,0.048 3.256027,1.72711 3.31592,1.77521 2.286918,1.83648 -3.494725,-0.0719 1.105309,1.77522 1.460314,0.58634 10.573741,0.63625 12.158382,0 0.466037,-0.18714 0.610999,-0.75531 1.105303,-0.88763 2.794485,-0.74801 8.175829,0 11.05308,0 h 37.580457 c 3.418245,0 15.447203,0.89851 17.684913,0 0.46605,-0.18709 0.73688,-0.59173 1.10532,-0.88759 1.84219,-0.2959 3.79976,-0.29332 5.52653,-0.88762 4.55858,-1.56889 -0.11713,-1.93395 4.42124,-2.66284 2.13437,-0.34278 8.24176,-0.43094 9.94776,-0.88758 0.98863,-0.26465 1.24305,-1.46445 2.2106,-1.77526 1.02626,-0.32964 2.28969,0.32969 3.31594,0 2.23877,-0.71912 3.99538,-2.84468 6.63185,-3.55042 1.51242,-0.40485 1.04528,1.07336 2.21062,1.77522 5.59171,3.3678 11.72927,4.70956 17.68492,7.10088 1.39811,0.56139 2.01531,1.96653 3.31592,2.66284 1.59185,0.8522 7.19722,-0.22019 8.84247,0 1.14924,0.15382 2.16667,0.7338 3.31592,0.88762 9.80124,1.31179 20.07104,-0.68189 29.84328,0.88759 2.10602,0.33826 4.55074,-0.4178 6.63187,0 1.92485,0.38646 3.60169,1.38879 5.52654,1.77525 0.96308,0.19334 4.65787,0.34878 5.52655,0 0.93206,-0.37427 1.22197,-1.5106 2.21059,-1.77525 0.69908,-0.18712 1.49575,0.14352 2.21062,0 2.34066,-0.46991 4.2912,-2.1929 6.63183,-2.66284 3.54651,-0.71198 8.49503,0 12.1584,0 h 28.738 c 4.96111,0 10.5527,0.56464 15.4743,0 1.50384,-0.17248 2.91741,-0.71506 4.42125,-0.88759 1.82365,-0.20921 3.73937,0.35878 5.52653,0 1.83539,-0.36848 2.92063,-1.37355 4.42122,-1.77521 0.69907,-0.18714 1.48807,0.11605 2.21062,0 8.06457,-1.29526 10.00606,-2.66283 18.79023,-2.66283 3.10536,0 20.21532,3.29364 21.00084,2.66283 2.56878,-2.06285 -4.32767,-8.75579 3.31593,-7.98851 2.9475,0.29587 6.02446,0.1333 8.84247,0.88762 1.10072,0.29462 2.21522,1.48056 3.31592,1.77522 0.69904,0.18712 1.55153,-0.26464 2.21061,0 0.73685,0.29585 0.36843,1.47936 1.1053,1.77522 1.91638,0.76945 8.10024,1.03338 9.94778,1.7752 0.32953,0.13235 -0.26054,0.67841 0,0.88762 0.0403,0.0325 21.132,-0.88762 23.21145,-0.88762 3.87604,0 8.34739,-0.51005 12.15839,0 3.32953,0.44566 6.61073,1.39241 9.94776,1.77525 10.03953,1.15174 23.8674,0 34.26455,0 10.73961,0 24.24871,-2.22816 34.26452,-0.88763 2.97715,0.39846 5.98913,1.39333 8.84246,1.77522 2.57907,0.3452 5.15812,-0.25888 7.73718,0 15.60125,1.56608 35.54118,1.57017 50.84413,-0.88759 3.02794,-0.48631 6.81726,0 9.94776,0 9.02413,0 14.88211,-1.98124 23.21146,-5.32567 1.88423,-0.75657 6.40766,-0.70754 7.73719,-1.77522 0.2605,-0.20922 -0.26053,-0.67839 0,-0.88762 1.50599,-1.20937 1.06387,0.87098 1.10527,0.88762 0.65911,0.26462 1.68958,-0.41845 2.21063,0 0.52107,0.41842 -0.32954,1.24595 0,1.77522 1.59129,2.55577 3.07636,2.00696 5.52656,2.66284 1.47455,0.3947 2.11557,3.55042 4.42122,3.55042 3.53935,0 7.86901,0.39087 11.05305,-0.88759 0.46606,-0.18714 0.59982,-0.78615 1.10532,-0.88763 1.21792,-0.24451 22.44207,-0.50182 24.31678,0 1.49492,0.40017 7.35252,2.0841 8.84247,0.88763 0.26049,-0.20923 -0.16478,-0.62297 0,-0.88763 0.95348,-1.53138 1.25965,-2.91073 2.21059,-4.43804 0.7331,-1.17742 -0.52276,-3.17865 0,-4.43804 0.12244,-0.29498 1.95468,-3.34493 2.2106,-3.55046 0.26056,-0.20921 0.84479,0.2092 1.10533,0 0.9211,-0.73969 0.18422,-2.81076 1.10531,-3.55044 0.26053,-0.20922 0.84477,0.20921 1.1053,0 2.48594,-1.99633 -3.78691,-9.12318 -4.42123,-10.65133 -0.33158,-0.79886 0.3316,-1.86399 0,-2.66284 -1.3698,-3.30004 -0.48302,-5.37799 -1.10531,-8.87609 -0.38314,-2.1538 -1.70182,-4.17045 -2.21059,-6.21328 -0.21747,-0.87309 -0.57973,-6.25673 -1.10533,-7.10086 -0.16475,-0.26464 -0.84477,0.20919 -1.10529,0 -0.41685,-0.33479 -0.85417,-5.20501 -1.10532,-6.21329 -0.52902,-2.12414 -1.40559,-3.38626 -2.21062,-5.32567 -0.6358,-1.53168 0.8881,-3.89927 0,-5.32564 -0.23302,-0.37426 -0.94055,-0.49067 -1.10532,-0.88762 -0.73658,-1.77454 1.03128,-4.55697 0,-6.21329 -0.23813,-0.38247 -2.63999,-0.54281 -1.10528,-1.77522 1.04209,-0.83683 2.99148,0.28704 4.42122,0 0.50548,-0.10149 0.63928,-0.70047 1.10532,-0.88759 4.08874,-1.64173 4.42121,2.64031 4.42121,-3.55045 v -26.62832 c 0,-3.56291 1.38569,-9.08828 0,-12.42653 -0.16476,-0.39697 -0.8723,-0.51337 -1.10529,-0.88764 -0.97188,-1.56092 0,-25.69833 0,-29.29113 0,-5.07455 -1.27334,-27.11113 0,-30.17876 0.16476,-0.39695 0.87225,-0.51336 1.10529,-0.88762 1.37371,-2.20631 0,-11.01017 0,-14.20175 0,-0.54167 0.43068,-3.20458 0,-3.55043 -0.78156,-0.62766 -2.39626,0.49235 -3.31592,0 -0.68549,-0.36701 -0.52274,-1.30741 -1.10529,-1.77523 -0.92467,-0.74255 -4.42126,1.38708 -4.42126,-2.66283 0,-0.59174 -0.32952,-1.24595 0,-1.77523 0.36847,-0.59175 1.8422,-0.29586 2.21063,-0.88761 1.10531,-1.77521 -0.55266,-1.33141 0,-2.66283 1.31952,-3.1789 2.603,-5.95587 4.42125,-8.87611 1.71487,-2.75424 -1.42122,-12.55319 0,-15.97699 2.49829,-6.01875 1.93619,-15.9708 0,-22.19024 -1.21368,-3.89854 1.21366,-8.52802 0,-12.42656 -0.12639,-0.40592 -0.94054,-0.49066 -1.10533,-0.88762 -0.57718,-1.39052 -0.31173,-20.30129 0,-21.30265 0.19982,-0.64181 0.96987,-1.12263 1.10533,-1.77522 0.65383,-3.15048 -0.77956,-6.63367 0,-9.7637 0.16154,-0.64876 0.90546,-1.13341 1.1053,-1.77522 1.11616,-3.58529 -0.65126,-7.87801 0,-11.53893 0.65497,-3.68181 1.10529,-3.63512 1.10529,-7.10089 0,-3.6045 -1.16272,-12.28822 0,-15.08939 0.16476,-0.39695 0.94054,-0.49066 1.10531,-0.88761 0.3316,-0.79886 -0.33158,-1.86398 0,-2.66283 2.13097,-5.13379 2.16114,-14.32097 0,-19.52741 -0.82578,-1.98942 1.1604,-5.23722 0,-7.10089 -0.46604,-0.74848 -1.74458,-1.02675 -2.2106,-1.77525 -0.32954,-0.52925 0.52105,-1.35679 0,-1.7752 -0.52106,-0.41842 -1.55154,0.26465 -2.21063,0 -0.93207,-0.37423 -1.22199,-1.5106 -2.21061,-1.77522 -0.69906,-0.18713 -1.49575,0.14354 -2.21062,0 -2.16463,-0.43457 -3.71029,-1.93356 -5.52652,-2.66283 -0.32956,-0.1323 -0.84481,0.20921 -1.10533,0 -1.72527,-1.3855 6.92642,-14.26041 7.73716,-16.8646 0.36844,-1.18348 0.0312,-2.68785 1.10531,-3.55044 0.26051,-0.20922 0.84477,0.2092 1.10532,0 0.70111,-0.56303 -0.46014,-2.81144 0,-3.55045 0.83518,-1.34137 2.94357,-3.55984 2.21062,-5.32565 -1.88701,-4.54599 -5.40056,-12.73003 -3.31594,-17.75222 0.70563,-1.69993 1.71224,-4.92543 3.31594,-6.21326 0.26049,-0.20922 0.98877,0.28067 1.1053,0 1.22877,-2.96035 -0.28244,-2.2092 1.10529,-4.43806 1.60093,-2.57122 -1.13605,-7.02682 0,-9.76371 0.32955,-0.7939 1.74458,-1.02672 2.2106,-1.77524 0.32956,-0.52926 -0.52102,-1.35678 0,-1.7752 1.98549,-1.5944 0.81468,3.82983 2.21064,-1.77523 0.50578,-2.03087 -0.424,-4.17036 0,-6.21328 0.13543,-0.65258 0.84477,-1.14757 1.1053,-1.77521 0.58672,-1.41348 0,-3.77489 0,-5.32567 0,-2.11826 0.2372,-21.999771 0,-22.19025 -0.26053,-0.209217 -0.84477,0.209204 -1.1053,0 -0.78158,-0.627638 0.26807,-1.801725 0,-2.662835 -0.19981,-0.641834 -0.90551,-1.133387 -1.10531,-1.775221 -0.67283,-2.161262 0.87749,-4.986881 0,-7.100885 -0.16476,-0.396951 -0.94054,-0.490658 -1.10533,-0.887608 -0.46602,-1.122749 0.35745,-2.402303 0,-3.550444 -0.66532,-2.137099 -1.08411,-4.404045 -2.2106,-6.213271 -1.29317,-2.076971 0,-13.477542 0,-15.976985 0,-3.790006 0.37914,-7.962681 -1.10529,-11.538936 -0.46352,-1.11667 -1.66701,-2.240816 -2.21063,-3.550443 -0.233,-0.561374 0.32954,-1.245953 0,-1.775216 -0.233,-0.374256 -0.94054,-0.490667 -1.10529,-0.887614 -0.34956,-0.842065 0.78156,-2.035196 0,-2.662829 -0.26055,-0.209217 -1.01599,0.28703 -1.10532,0 -0.44678,-1.435182 1.30262,-3.391998 0,-4.438055 -0.26054,-0.209207 -0.84477,0.209209 -1.10531,0 -0.52104,-0.418423 0.32955,-1.245952 0,-1.775225 -1.17456,-1.886434 -1.41052,-2.907938 -3.31591,-4.438045 -1.70804,-1.371622 -8.78588,-2.359386 -11.0531,-2.66283 -1.45368,-0.1945686 -3.10308,0.529263 -4.4212,0 -1.97928,-0.794712 -4.57294,-0.9485136 -6.63186,-1.7752254 -0.46607,-0.187128 -0.61101,-0.755297 -1.10532,-0.8876126 -0.69904,-0.1871196 -1.55154,0.2646394 -2.21061,0 -0.32955,-0.1323154 0.26052,-0.678396 0,-0.8876125 -1.16445,-0.9350881 -4.5788,0.6339267 -5.52653,0.8876125 -2.04956,0.5486383 -4.57007,0.4736838 -6.63184,0.8876126 -1.59851,0.3209165 -2.82274,1.4543101 -4.42122,1.7752254 -1.66381,0.334024 -3.8931,-0.4372576 -5.52656,0 -2.06207,0.551971 -2.75342,1.105553 -4.42123,1.775218 -0.65908,0.26463 -1.68957,-0.418426 -2.21059,0 -0.26054,0.209215 0.2605,0.678394 0,0.887612 -1.92431,1.545289 -2.2324,0.536057 -4.42127,0.887613 -2.65645,0.426647 -12.20032,5.291977 -14.36898,3.550432 -0.52104,-0.418422 0.52103,-1.356793 0,-1.775216 -0.58256,-0.467811 -1.75364,-0.337141 -2.21062,-0.887612 -0.47743,-0.575102 -0.32959,-2.927513 -1.10531,-3.550443 -0.26051,-0.209208 -0.84477,0.209216 -1.10529,0 -0.52107,-0.418425 0.52103,-1.3567942 0,-1.7752173 -0.55268,-0.4438094 -2.76328,0.4438027 -3.31594,0 -0.26051,-0.2092148 0.26052,-0.6783957 0,-0.8876121 -0.95538,-0.7672239 -10.09675,-0.1535947 -11.05308,0 -2.22905,0.3580061 -4.45476,1.1924588 -6.63182,1.7752254 -1.58267,0.423642 -4.05004,-0.592867 -5.52654,0 -0.32955,0.132315 0.2605,0.678396 0,0.887604 -0.84909,0.681841 -7.87731,0 -8.84245,0 -10.72725,0 -21.60194,-0.51129 -32.05398,0.887614 -1.81708,0.243204 -3.73934,-0.358799 -5.52652,0 -1.59848,0.320914 -2.79593,1.557688 -4.42122,1.775225 -4.91346,0.657616 -8.80392,-0.0061 -14.36898,0.887604 -4.03322,0.647773 -9.17847,0 -13.26371,0 -12.81936,0 -23.92631,0.240234 -36.47515,-1.775217 -2.73262,-0.438885 -16.22768,-0.68595 -18.79023,0 -1.56315,0.418423 -2.85811,1.356793 -4.42123,1.775217 -4.27,1.142993 -8.78448,1.763581 -13.26369,2.662828 -1.75104,0.351546 -7.20504,0.438309 -8.84245,0 -0.49431,-0.132314 -0.61102,-0.755289 -1.10533,-0.887605 -2.9483,-0.7892 -6.89128,0.4909 -9.94776,0 -1.14245,-0.183493 -2.16252,-0.755295 -3.31593,-0.887611 -5.12069,-0.587451 -9.28923,-0.207727 -14.369,-0.887612 -8.3757,-1.121011 -0.45033,-0.180817 -4.42122,-1.775217 -0.65907,-0.264641 -1.55154,0.264631 -2.2106,0 -0.46604,-0.187128 -0.59984,-0.786136 -1.10532,-0.887612 -1.07233,-0.21528 -2.22565,0.145921 -3.31594,0 -3.9951,-0.534714 -7.04382,-3.0905038 -11.05305,-3.5504434 -2.18838,-0.2510508 -4.53469,0.5613745 -6.63186,0 -2.34317,-0.627218 -5.05386,-2.1241283 -7.73716,-2.6628292 -1.34887,-0.2708056 -16.38606,-2.818267 -16.5796,-2.6628383 -0.26053,0.2092164 0.32955,0.7552969 0,0.8876132 -1.64771,0.6615861 -3.70289,-0.2092081 -5.52656,0 -4.46788,0.5125648 -8.79576,1.2626605 -13.26367,1.7752251 -1.82368,0.2092073 -3.73935,-0.358798 -5.52656,0 -0.79924,0.1604578 -1.40275,0.7578632 -2.21061,0.8876041 -2.80606,0.4506825 -6.0691,-0.5567761 -8.84245,0 -4.62571,0.9286633 -5.39807,0.3656696 -9.94778,0.8876125 -1.15339,0.1323156 -2.16253,0.755297 -3.3159,0.8876126 -3.55417,0.4077375 -7.53107,-0.5656717 -11.0531,0 -2.59129,0.4161851 -5.15886,1.2576058 -7.73714,1.7752254 -2.43188,0.48822 -5.27427,-0.3955698 -7.73716,0 -1.14246,0.183486 -2.16668,0.733794 -3.3159,0.887604 -2.41802,0.323628 -5.3506,-0.479127 -7.73718,0 -8.80777,1.768259 -22.39911,4.213476 -32.05391,2.662839 -0.80786,-0.12975 -1.39505,-0.794058 -2.21062,-0.887613 -2.91787,-0.334737 -6.04623,0.748493 -8.84247,0 -0.34953,-0.09356 0.26053,-0.678397 0,-0.887612 -0.52103,-0.418426 -1.55152,0.26463 -2.21061,0 -1.67942,-0.674325 -2.66356,-2.1923405 -4.42122,-2.6628313 -2.91556,-0.7804334 -7.00424,-1.3812574 -9.94776,-1.7752247 -3.12897,-0.4187773 -5.76621,-2.0452389 -8.84246,-2.662829 -1.35481,-0.2719941 -37.62855,-0.5788732 -39.79109,0 -1.26026,0.3373467 -2.37659,1.0209012 -3.31594,1.7752165 -0.2605,0.2092165 0.32955,0.7552971 0,0.8876125 -0.88422,0.3550434 -2.43165,-0.3550434 -3.31591,0 -0.46603,0.187128 -0.61099,0.755297 -1.105302,0.8876126 -6.308302,1.6886105 -16.941318,-1.6783978 -23.211461,0 C 72.742353,9.3618134 72.28168,12.915381 67.877564,13.622731 60.610063,14.789951 43.295433,13.347549 35.823637,11.847506 33.65901,11.412934 32.113337,9.9139307 30.297107,9.1846747 27.133386,7.9143681 23.052423,8.2970626 19.244023,8.2970626 c -0.742905,0 -4.139715,4.0665984 -4.559393,1.8861764 -0.02713,-0.141022 -1.011028,-3.7723439 -4.8357151,-3.7723439 -0.6258289,1.7597419 0.5525141,3.8837419 0,5.6585109 -0.03159,0.101486 -0.2351349,0.122663 -0.2763274,0.221901 -0.1165095,0.280691 0.1165105,0.606931 0,0.887613 -0.3219966,0.775732 -1.6149276,2.091302 -2.072454,2.662837 z"
       id="path3" />
  </g>
</svg>
